<?xml version="1.0" standalone="no"?><!DOCTYPE svg PUBLIC "-//W3C//DTD SVG 1.1//EN" "http://www.w3.org/Graphics/SVG/1.1/DTD/svg11.dtd"><svg t="1664521243875" class="icon" viewBox="0 0 1024 1024" version="1.1" xmlns="http://www.w3.org/2000/svg" p-id="2092" width="64" height="64" xmlns:xlink="http://www.w3.org/1999/xlink"><path d="M947.648 316.672a25.472 25.472 0 0 0-26.176 1.088l-153.792 100.48V326.4c0-28.224-22.976-51.2-51.2-51.2H479.296l-65.92-80.256A25.728 25.728 0 0 0 393.6 185.6h-204.8a25.6 25.6 0 1 0 0 51.2h192.704l31.488 38.4h-298.88c-28.224 0-51.2 22.976-51.2 51.2v460.8c0 28.224 22.976 51.2 51.2 51.2h602.304c28.224 0 51.2-22.976 51.2-51.2v-91.84l153.792 100.48a25.6 25.6 0 0 0 39.616-21.44V339.2a25.536 25.536 0 0 0-13.44-22.528zM374.4 752h-204.8a25.6 25.6 0 1 1 0-51.2h204.8a25.6 25.6 0 1 1 0 51.2z m262.4-326.4a25.6 25.6 0 1 1 0-51.2 25.6 25.6 0 0 1 0 51.2z" fill="currentColor" p-id="2093"></path></svg>