<?xml version="1.0" standalone="no"?><!DOCTYPE svg PUBLIC "-//W3C//DTD SVG 1.1//EN" "http://www.w3.org/Graphics/SVG/1.1/DTD/svg11.dtd"><svg t="1664526576639" class="icon" viewBox="0 0 1024 1024" version="1.1" xmlns="http://www.w3.org/2000/svg" p-id="12925" xmlns:xlink="http://www.w3.org/1999/xlink" width="64" height="64"><path d="M827.733333 554.666667c0-12.8 4.266667-25.6 4.266667-42.666667s0-29.866667-4.266667-42.666667l89.6-72.533333c8.533333-8.533333 8.533333-17.066667 4.266667-25.6l-85.333333-149.333333C832 217.6 823.466667 213.333333 810.666667 217.6l-106.666667 42.666667c-21.333333-17.066667-46.933333-29.866667-72.533333-42.666667l-17.066667-110.933333C618.666667 93.866667 605.866667 85.333333 597.333333 85.333333l-170.666667 0C418.133333 85.333333 405.333333 93.866667 405.333333 102.4L388.266667 217.6C362.666667 226.133333 341.333333 243.2 315.733333 260.266667L213.333333 217.6C200.533333 213.333333 192 217.6 183.466667 226.133333l-85.333333 149.333333C93.866667 379.733333 98.133333 392.533333 106.666667 401.066667L196.266667 469.333333c0 12.8-4.266667 25.6-4.266667 42.666667s0 29.866667 4.266667 42.666667l-89.6 72.533333c-8.533333 8.533333-8.533333 17.066667-4.266667 25.6l85.333333 149.333333C192 806.4 200.533333 810.666667 213.333333 806.4l106.666667-42.666667c21.333333 17.066667 46.933333 29.866667 72.533333 42.666667l17.066667 110.933333c0 8.533333 8.533333 17.066667 21.333333 17.066667l170.666667 0c8.533333 0 21.333333-8.533333 21.333333-17.066667l17.066667-110.933333c25.6-12.8 51.2-25.6 72.533333-42.666667l106.666667 42.666667c8.533333 4.266667 21.333333 0 25.6-8.533333l85.333333-149.333333c4.266667-8.533333 4.266667-21.333333-4.266667-25.6L827.733333 554.666667zM512 661.333333c-81.066667 0-149.333333-68.266667-149.333333-149.333333s68.266667-149.333333 149.333333-149.333333 149.333333 68.266667 149.333333 149.333333S593.066667 661.333333 512 661.333333z" fill="currentColor" p-id="12926"></path></svg>